<svg xmlns="http://www.w3.org/2000/svg" xmlns:xlink="http://www.w3.org/1999/xlink" width="43" height="43" viewBox="0 0 43 43">
  <defs>
    <clipPath id="clip-path">
      <circle id="Ellipse_518" data-name="Ellipse 518" cx="21.5" cy="21.5" r="21.5" transform="translate(316 373)" fill="#f4f4f5"/>
    </clipPath>
  </defs>
  <g id="ArabicFlag" transform="translate(-316 -373)" clip-path="url(#clip-path)">
    <g id="sa" transform="translate(301.094 373)">
      <g id="sa-2" data-name="sa" transform="translate(0.365 0)">
        <rect id="Rectangle_12441" data-name="Rectangle 12441" width="66" height="43" transform="translate(2.541 0)" fill="#006c35"/>
        <path id="Path_54541" data-name="Path 54541" d="M195.895,118.09a.266.266,0,0,0-.125.048.927.927,0,0,0-.39.655c-.008.172-.04.171.072.28.081.117.162.106.326.02a.347.347,0,0,0,.158-.23c.039-.2-.205.092-.237-.125-.055-.2.1-.285.25-.48C195.953,118.166,195.955,118.091,195.895,118.09Zm2.387.013c-.046.006-.1.065-.18.206a.871.871,0,0,0-.123.832,1.253,1.253,0,0,1-.114,1.649.409.409,0,0,1-.528.072.565.565,0,0,1-.315-.445,6.089,6.089,0,0,0-.048-1.432.26.26,0,0,0-.434-.088,3.27,3.27,0,0,0-.786,1.614c-.121.392-.251.279-.342.12-.221-.207-.237-1.828-.5-1.562-.428,1.222.245,2.561.712,2.431.336.139.55-.5.688-1.2.094-.2.166-.219.215-.118-.012.933.067,1.141.307,1.424a.774.774,0,0,0,1.012.018l.416-.416a.25.25,0,0,1,.346-.018c.127.116.111.315.383.453a.842.842,0,0,0,.832-.175c.153-.262.19-.352.261-.451.109-.145.3-.081.3-.035-.017.081-.127.161-.053.307.13.1.16.035.237.013.271-.13.475-.718.475-.718.012-.22-.113-.2-.193-.158-.1.064-.111.085-.215.149-.133.02-.39.107-.517-.09a7.8,7.8,0,0,1-.23-.806c0-.017-.174-.376-.013-.4.081.015.255.06.283-.085.085-.142-.183-.544-.366-.747a.394.394,0,0,0-.589-.018c-.148.137-.126.289-.156.434a.678.678,0,0,0,.138.591,1.8,1.8,0,0,1,.329,1.2.48.48,0,0,1-.431.219c-.115-.025-.3-.075-.4-.808-.075-.555.019-1.333-.217-1.7-.053-.137-.1-.271-.175-.261Zm-.755.059c-.071.006-.15.089-.215.25a4.059,4.059,0,0,0-.112.76c-.044.19.2.27.309.026a2.328,2.328,0,0,0,.177-.828c-.026-.145-.089-.214-.16-.208Zm2.79.05c-.073.007-.132.049-.153.158a1.664,1.664,0,0,0,.028.6,2.142,2.142,0,0,0,.34.515c.483.65.948,1.3,1.4,1.978.071.5.122.992.156,1.481a29.823,29.823,0,0,1,.028,3.533c.2.008.522-.324.635-.81a23.575,23.575,0,0,0-.033-2.442c0-.165-.015-.361-.026-.567.522.854,1.029,1.758,1.527,2.751.181-.086.141-1.107.035-1.251-.4-.857-.948-1.7-1.124-2.028-.063-.118-.279-.445-.534-.824-.047-.54-.1-1-.131-1.135-.082-.57.234.064.191-.267a3.648,3.648,0,0,0-.788-1.478c-.12-.17-.117-.2-.3.042a1.089,1.089,0,0,0-.077.655c-.049-.071-.109-.154-.195-.258-.321-.275-.34-.29-.607-.515a.657.657,0,0,0-.366-.14Zm8.27.085c-.036-.006-.074.012-.118.077a.5.5,0,0,0-.171.377c.02.3.074.608.094.909l.022.12c-.032-.041-.061-.073-.077-.09-.586-.615.269-.1-.112-.576a4.563,4.563,0,0,0-.692-.679c-.138-.089-.222-.26-.267.031a5.727,5.727,0,0,0-.02.767,1.03,1.03,0,0,0,.23.477c.391.48.79.991,1.191,1.524.085,1.087.107,2.084.193,3.174-.012.466-.155,1.085-.291,1.143,0,0-.207.119-.346-.013a4.155,4.155,0,0,1-.5-.672.307.307,0,0,0-.491,0,6.772,6.772,0,0,0-.863,1.627c-.071.113-.271.208-.493-.009a2.3,2.3,0,0,1-.3-1.586,1.753,1.753,0,0,0-.166,1.706,1.338,1.338,0,0,0,.622.707.436.436,0,0,0,.648-.07c.3-.306.3-1.089.438-1.244a.259.259,0,0,1,.46-.11,1.13,1.13,0,0,0,.42.364.706.706,0,0,0,.929.066,1.076,1.076,0,0,0,.495-.6,21.225,21.225,0,0,0,.039-3.408c.208.293.414.593.618.9a22.209,22.209,0,0,1,.1,2.79c-.021.179.624-.534.62-.872,0-.3,0-.563,0-.813.313.5.616,1.008.9,1.522.177-.094.117-1.1,0-1.237-.3-.5-.684-1.047-.981-1.467-.059-.531-.139-1.157-.175-1.349-.057-.3-.114-.749-.2-1.1a3.77,3.77,0,0,1-.072-.624c.035-.1.167,0,.232-.112a3.979,3.979,0,0,0-.559-1.555c-.079-.144-.223-.094-.4.14-.165.154-.1.506-.042.841.163.853.309,1.722.425,2.589-.214-.318-.475-.7-.732-1.073-.007-.036-.033-.167-.033-.169s-.035-.7-.066-.861c-.005-.066-.021-.085.048-.077a.4.4,0,0,0,.129.085c.074.014.139-.112.094-.228l-.688-1.27A.191.191,0,0,0,208.587,118.3Zm-21.343.022c-.127,0-.267.075-.212.228-.032.083.249.365.3.519.044.11-.044.464.048.5s.2-.245.245-.506c.025-.143.006-.631-.326-.732a.271.271,0,0,0-.053-.007Zm24.313,0c-.029,0-.064.05-.118.164a1.522,1.522,0,0,0-.123.931,51.155,51.155,0,0,1,.594,6.043,1.955,1.955,0,0,1-.118.5,3.986,3.986,0,0,1-.58.677c-.192.143-.6.279-.734.385-.424.245-.426.526-.083.537a2.111,2.111,0,0,0,1.77-.843,2.814,2.814,0,0,0,.287-1.093,25.5,25.5,0,0,0-.322-5.346,2.66,2.66,0,0,1-.057-.5c.038-.1.231.01.3-.1.1-.1-.5-.872-.71-1.2-.042-.083-.068-.15-.105-.147Zm-6.189.033c-.024,0-.06.041-.127.129a2.889,2.889,0,0,0-.16,1.314,28.578,28.578,0,0,1,.788,6.327c.2,0,.433-.459.532-.915a7.763,7.763,0,0,0-.053-1.38c-.016-.369-.418-3.365-.5-3.644-.1-.528.391-.069.337-.377-.169-.387-.591-.951-.723-1.288-.05-.09-.056-.173-.1-.166Zm-15.07.042a.158.158,0,0,0-.12.123c-.011.046.02.123-.022.147-.024.024-.115.008-.112-.12a.214.214,0,0,0-.048-.109.1.1,0,0,0-.063-.015c-.04,0-.039.012-.061.046a.379.379,0,0,0-.022.107c-.005.046-.023.061-.057.068s-.029,0-.059-.015-.039-.028-.039-.061a.36.36,0,0,0-.02-.114.121.121,0,0,0-.07-.039c-.157,0-.169.182-.16.25-.012.013-.018.334.2.423.288.137.829.079.806-.385,0-.041-.009-.179-.013-.217a.124.124,0,0,0-.136-.085Zm3.868,0a.644.644,0,0,0-.263.072.5.5,0,0,0-.085.659c.146.069.293.217.195.3-.414.442-1.492,1.181-1.546,1.316l0,0s0,0,0,0,0,0,0,0l0,0,0,0h0l0,0h0l0,0a3.07,3.07,0,0,0,.8,0l0,0h0s0,0,0,0a11.343,11.343,0,0,0,1.332-1.343c-.057-.049-.109-.085-.166-.134s-.055-.1,0-.158a.436.436,0,0,0,.044-.666.71.71,0,0,0-.328-.066Zm10.11,0c-.029,0-.064.047-.118.162a1.845,1.845,0,0,0-.208.931c.282,1.949.368,3.655.552,5.6a.771.771,0,0,1-.138.572,5.494,5.494,0,0,1-1.859,1.356c-.078.088.195.462.548.462a2.076,2.076,0,0,0,1.59-1.272,2.268,2.268,0,0,0,.361-.977,21.324,21.324,0,0,0-.4-4.95.816.816,0,0,1,.018-.346c.038-.046.168,0,.237-.112.1-.1-.269-.957-.48-1.286-.042-.083-.068-.148-.105-.145Zm-15.662.06a.259.259,0,0,0-.195.164,5.64,5.64,0,0,0,.02.913,9.98,9.98,0,0,1,.256,1.467c.019.693-.4.3-.381-.044a3.123,3.123,0,0,0-.015-1.327c-.068-.178-.147-.222-.313-.193-.132-.008-.472.363-.567.977a5.771,5.771,0,0,0-.114.6c-.047.317-.257.542-.4-.044-.127-.426-.2-1.474-.416-1.229-.061.819-.133,2.259.563,2.407.841.081.377-1.422.681-1.7.058-.135.164-.137.173.033v1.277a.613.613,0,0,0,.477.624c.221-.017.367-.011.453.2q.052,1.1.105,2.21s.51.147.534-1.242a12.99,12.99,0,0,1-.053-1.658c0-.156.2-.164.342-.088.22.155.317.346.659.269.52-.143.833-.4.841-.8a3.462,3.462,0,0,0-.239-1.139c.023-.069-.1-.249-.077-.318.094.146.235.134.267,0a1.139,1.139,0,0,0-.449-.692c-.184-.162-.453-.128-.552.21a1.841,1.841,0,0,0,.425,1.229,1.2,1.2,0,0,1,.107.613.328.328,0,0,1-.427-.083s-.414-.31-.414-.379a1.484,1.484,0,0,0-.037-.979,1.321,1.321,0,0,0-.274-.539c-.1-.11-.244-.11-.311,0a1.856,1.856,0,0,0,.035,1.3c.1.281.242.456.173.456-.057.159-.175.122-.261-.061a4.555,4.555,0,0,1-.147-1.2c-.037-.315-.077-.988-.285-1.159a.2.2,0,0,0-.184-.094Zm2.955,0c-.042.005-.088.029-.142.042a.417.417,0,0,0-.294.513c.211,1.285.349,2.265.561,3.55.033.15-.094.349-.256.329-.277-.187-.345-.566-.817-.55a.919.919,0,0,0-.78.734,1.781,1.781,0,0,0,0,.841.683.683,0,0,0,.78.193c.207-.085.378-.29.451-.241h0s0,0,0,0c.045.079,0,.747-.977,1.264-.6.268-1.073.332-1.329-.155-.159-.3.012-1.466-.379-1.2-1.155,2.976,2.705,3.392,3.136.123.028-.092.113-.185.173-.162.026.011.05.047.059.114-.09,2.96-2.986,3.163-3.478,2.232a2.872,2.872,0,0,1-.171-1,.5.5,0,0,0-.118-.32c-.117-.088-.275.142-.309.541a3.588,3.588,0,0,0-.035.718c.154,2.338,3.882,1.333,4.488-.6a6.435,6.435,0,0,0,.094-1.844l0,0,0,0,0,0,.013,0c.37.4.889.051,1-.088a.167.167,0,0,1,.256-.024.6.6,0,0,0,.9-.256,8.1,8.1,0,0,0,.125-1.108,1.123,1.123,0,0,0-.4.166.105.105,0,0,0-.028.053c-.016.106-.032.212-.048.318a.08.08,0,0,1-.009.024.1.1,0,0,1-.035.033c-.066.036-.182.016-.188-.081-.089-.407-.457-.459-.681.171-.15.122-.425.146-.453-.037.037-.423-.134-.48-.475-.28-.11-.838-.219-1.637-.328-2.475.142,0,.273.1.4-.064a4.7,4.7,0,0,0-.607-1.413l0,0a.23.23,0,0,0-.024-.024l-.011-.009-.011-.007a.119.119,0,0,0-.022-.009.113.113,0,0,0-.046,0Zm11.518.007c-.148,0-.311.089-.247.274-.037.1.317.443.375.631.1.288-.079.563.028.6s.235-.3.287-.613a.953.953,0,0,0-.381-.887A.3.3,0,0,0,203.085,118.476Zm-8.973.315a.217.217,0,0,1,.188.142c.042.093.021.182-.048.2s-.159-.045-.2-.138-.021-.184.048-.2Zm16.645.431a.218.218,0,0,0-.223.3c-.034.109.287.48.339.683.047.144-.071.61.026.653s.216-.322.263-.664c.026-.187-.113-.844-.348-.962a.248.248,0,0,0-.057-.009Zm-9.2.228c.012.055.025.11.033.166.028.121.051.242.077.361-.106-.146-.194-.265-.232-.307C201.191,119.386,201.437,119.484,201.555,119.45Zm2.12,1.043a.161.161,0,0,0-.12.125c-.011.046.022.121-.02.145-.024.024-.118.01-.114-.118a.223.223,0,0,0-.048-.112.1.1,0,0,0-.064-.015c-.04,0-.039.012-.061.046a.4.4,0,0,0-.022.107c-.005.046-.021.061-.055.068s-.031,0-.061-.015-.039-.028-.039-.061a.361.361,0,0,0-.02-.114.119.119,0,0,0-.07-.037c-.157,0-.167.179-.158.247-.012.013-.02.336.195.425.288.137.831.077.808-.388,0-.041-.011-.179-.015-.217a.124.124,0,0,0-.136-.085Zm-9.68.1a.233.233,0,0,0-.136.042.593.593,0,0,0-.195.786.384.384,0,0,0,.414.134c.25.031.4-.469.4-.469s.007-.141-.289.125c-.125.023-.142-.022-.173-.092a.622.622,0,0,1,.039-.392c.028-.078,0-.128-.059-.134Zm13.684.064a.323.323,0,0,0-.331.278c0,.114.052.177.042.28-.015.059-.076.1-.221.028.023-.021-.094-.186-.094-.186-.113-.069-.265,0-.363.068a.553.553,0,0,0-.033.44c.163.3.721.814.988.819,0-.271.031-.632.046-.856.006-.085.026-.178.107-.2s.222.082.223-.007a1.162,1.162,0,0,0-.147-.548A.275.275,0,0,0,207.679,120.653Zm-11.327.944-.011.007-.007,0a1.4,1.4,0,0,1-.136.123c-.125.143-.148.242-.14.528.007.03.238.672.434,1.124a3.485,3.485,0,0,1,.164,1.513,3.728,3.728,0,0,1-1.529,1.6.8.8,0,0,1-.64,0l0,0a.4.4,0,0,1-.169-.364s0,0,0,0l0,0a3.6,3.6,0,0,0,1.535-1.588,1.625,1.625,0,0,0,.042-1.143,1.087,1.087,0,0,0-.258-.53l0,0c.086-.041.309.123.344.02a1.665,1.665,0,0,0-.44-.813.372.372,0,0,0-.541-.033c-.186.1-.225.475-.136.8.1.245.367.287.559.78,0,0,0,0,0,0,0,.031.066.367-.031.5a6.034,6.034,0,0,1-1.152,1.082l-.007,0,0,0,0,0,0,0h0l0,0v0l0,0c0-.02,0-.07,0-.151-.007-.148.055-.483.05-.541,0,0,0,0,0,0l0,0v0h0c-.331.214-.441.87-.5,1.064a15.726,15.726,0,0,0-2.341,1.6c-.286.446,1.97-.513,2.232-.629l.007.007c.05.055.054.246.2.418a1.193,1.193,0,0,0,1.218.392,3.863,3.863,0,0,0,1.759-1.463c.068-.1.175-.177.274-.1a2.755,2.755,0,0,0,2.495,1.31c.283-.344.148-.513.033-.585-.035-.024-.608-.247-.7-.469-.056-.207.08-.39.353-.528a12.261,12.261,0,0,0,2.3-.44,2.026,2.026,0,0,1,.254-.788.371.371,0,0,1,.129-.14l0,0,0,0,0,0v0a.072.072,0,0,0,0-.022l-.127-.074-2.5-.011a.266.266,0,0,1-.068-.035l0,0,0,0,0,0,0,0,0,0v0l0,0v-.018l0,0,0,0a.188.188,0,0,1,.079-.046c.6-.081,1.66-.256,1.73-1.277a.839.839,0,1,0-1.647.035c-.023.138.047.407-.094.438-.92.084-1.924.661-1.958,1.073h0l0,0,0,0h0l-.007,0h-.013l-.009,0a.24.24,0,0,1-.125-.254,4.937,4.937,0,0,0-.631-2.142c-.13-.13-.186-.182-.223-.188h-.017Zm2.4.377a.158.158,0,0,0-.12.123c-.011.046.022.123-.02.147-.024.024-.118.01-.114-.118a.223.223,0,0,0-.048-.112.089.089,0,0,0-.061-.015c-.04,0-.041.012-.064.046a.4.4,0,0,0-.022.107c-.005.046-.021.061-.055.068s-.029,0-.059-.015-.042-.028-.042-.061a.363.363,0,0,0-.018-.114.125.125,0,0,0-.072-.037c-.157,0-.167.179-.158.247-.012.013-.02.336.195.425.288.137.975.057.808-.388,0-.041-.011-.179-.015-.217a.124.124,0,0,0-.136-.085Zm9.67.4a.048.048,0,0,0-.024,0s-1.336.95-1.369.983c-.132.118-.066.532,0,.484a5.319,5.319,0,0,0,1.415-.981c.059,0,.087-.469-.022-.488Zm-8.407.141a.341.341,0,0,1,.195.053c.1.058.161.145.153.208,0,0,0,0,0,.007s0,0,0,.007l0,.007,0,0,0,0a.087.087,0,0,1-.013.015.244.244,0,0,1-.263-.022.262.262,0,0,1-.153-.208s0,0,0-.007a.075.075,0,0,1,.009-.022s0-.006,0-.009l0,0,.011-.011a.125.125,0,0,1,.063-.024Zm-11.7.241a2.225,2.225,0,0,0-1.732,1.4c.73-.351,1.448-.688,2.19-1.051C188.65,122.925,188.762,122.764,188.312,122.752Zm2.243.311a.187.187,0,0,1,.177.129.224.224,0,0,1-.039.223s0,0,0,0l0,0c-.029.037-.131.022-.2.022a.2.2,0,0,1-.184-.09c-.025-.079.052-.158.085-.217l0,0a.115.115,0,0,1,.015-.017.229.229,0,0,1,.12-.053Zm17.6.275a.232.232,0,0,0-.186.318c-.034.109.167.491.219.694.047.144-.06.553.037.6s.326-.242.318-.607c.026-.187-.067-.877-.3-.994a.222.222,0,0,0-.085-.007Zm-14.95.675c-.109.008-.206.066-.162.219-.007.111.307.246.326.5.045.106-.067.446.026.477s.2-.235.25-.486c.025-.138-.108-.619-.333-.705a.386.386,0,0,0-.107-.009Zm4.475.611h.028a7.755,7.755,0,0,0,1.047.12c.291.018.434.246.162.342s-.527.164-.528.552a.535.535,0,0,1,0,.339l-.009.011,0,0,0,0,0,0,0,0,0,0-.013.007-.013,0c-.064.009-.157-.052-.226-.088a1.419,1.419,0,0,1-.7-1.025.26.26,0,0,1,.263-.272Zm-10.929.475c-.017,0-.052.053-.1.112a2.172,2.172,0,0,0-.221,1.927.48.48,0,0,0,.467.155.856.856,0,0,0,.311-.828c-.086-.135-.155-.157-.241-.042-.182.37-.258.117-.274-.09a4.75,4.75,0,0,1,.053-1.038c.023-.146.022-.2,0-.2Zm14.028.861a.189.189,0,0,0-.1.02,1.748,1.748,0,0,0-.388.331c-.057.043-.05.081-.033.155.044.1.122.07.21.022.117-.016.174.061.164.2a.259.259,0,0,0,.024.252.2.2,0,0,0,.245.031,4.638,4.638,0,0,1,.845-.3c.1,0,.1-.277-.066-.287a.962.962,0,0,0-.62.188c-.13.03-.153-.049-.182-.12-.033-.177.075-.3.053-.434A.307.307,0,0,0,200.781,125.96Zm8.982.335c-.052,0-.107.009-.186.015s-.116.056-.131.16c.006.158.1.15.2.212a.171.171,0,0,1,0,.258c-.094.086-.16.133-.254.219-.044.075-.072.191.064.228.25.07.828-.305.828-.313a.183.183,0,0,0,.055-.2c-.055-.062-.178-.025-.261-.035-.039,0-.169-.019-.107-.134a.775.775,0,0,0,.105-.2c.039-.086,0-.144-.136-.191a.778.778,0,0,0-.173-.015Zm-3.752,7.6,0,0a.394.394,0,0,0-.136.727c-4.387,0-11.119-.074-12.563-.074-.808,0-3.363-.1-3.412-.1a2.588,2.588,0,0,0,2.381.981c1.949,0,10.977-.024,13.546-.024a.9.9,0,0,0,.16.942l.011.007.018.007h.007c.17.04.245-.083.3-.173a17.59,17.59,0,0,0,1.971,0l0,0c.1.141.192.275.374.252.32-.069.572-.1.58-.753,0,0-.033-1.107-.76-1.038-.172.026-.655.074-.655.074-.559-.067-.969-.073-1.6-.1.058-.074.16-.372.035-.48a.2.2,0,0,0-.149-.037h-.007l0,0-.007,0a.062.062,0,0,1-.011-.011l0,0c-.032-.046-.049-.16-.07-.188l0,0,0,0,0,0h0Zm.3,1.584h0c.64.031,1.241.006,1.881.037a.232.232,0,0,1-.015.32l-.011,0h-.018l-.537-.015a.123.123,0,0,0,0-.031c-.049-.146-.407-.136-.491-.022l0,.007,0,.009,0,.011a.108.108,0,0,0,0,.015.1.1,0,0,0,0,.018,5.025,5.025,0,0,1-.815-.02C206.2,135.707,206.212,135.521,206.309,135.476Z" transform="translate(-163.476 -105.755)" fill="#fff" fill-rule="evenodd"/>
      </g>
    </g>
  </g>
</svg>
