<svg xmlns="http://www.w3.org/2000/svg" width="40" height="40" viewBox="0 0 40 40">
  <g id="bag-tick" transform="translate(-27 -181)">
    <g id="Ellipse_521" data-name="Ellipse 521" transform="translate(27 181)" fill="#fff" stroke="#ccc" stroke-width="1">
      <circle cx="20" cy="20" r="20" stroke="none"/>
      <circle cx="20" cy="20" r="19.5" fill="none"/>
    </g>
    <g id="bag-tick-2" data-name="bag-tick" transform="translate(37 191)">
      <path id="Vector" d="M1.873,3.749a.618.618,0,0,1-.442-.183L.181,2.315a.625.625,0,0,1,.883-.883l.825.825L4.157.165a.625.625,0,0,1,.85.917L2.3,3.582A.62.62,0,0,1,1.873,3.749Z" transform="translate(7.395 11.461)"/>
      <path id="Vector-2" data-name="Vector" d="M.623,4.273A.639.639,0,0,1,.181,4.09a.629.629,0,0,1,0-.883L3.207.181a.625.625,0,0,1,.883.883L1.065,4.09A.655.655,0,0,1,.623,4.273Z" transform="translate(3.703 1.044)"/>
      <path id="Vector-3" data-name="Vector" d="M3.648,4.273a.618.618,0,0,1-.442-.183L.181,1.065A.625.625,0,0,1,1.065.181L4.09,3.207a.629.629,0,0,1,0,.883A.639.639,0,0,1,3.648,4.273Z" transform="translate(12.028 1.044)"/>
      <path id="Vector-4" data-name="Vector" d="M15.8,4.584H2.292A2.244,2.244,0,0,1,.558,4.109,2.422,2.422,0,0,1,0,2.292C0,0,1.675,0,2.475,0H15.443c.8,0,2.475,0,2.475,2.292a2.41,2.41,0,0,1-.558,1.817A2.067,2.067,0,0,1,15.8,4.584ZM2.475,3.334h13.16c.375.008.725.008.842-.108.058-.058.183-.258.183-.933,0-.942-.233-1.042-1.225-1.042H2.475c-.992,0-1.225.1-1.225,1.042,0,.675.133.875.183.933a1.677,1.677,0,0,0,.842.108Z" transform="translate(1.042 4.25)"/>
      <path id="Vector-5" data-name="Vector" d="M10.118,11.252H5.093c-2.984,0-3.65-1.775-3.909-3.317L.009.726a.625.625,0,0,1,1.233-.2l1.175,7.2C2.659,9.2,3.159,10,5.093,10h5.026c2.142,0,2.384-.75,2.659-2.2l1.4-7.293a.614.614,0,0,1,.733-.492A.62.62,0,0,1,15.4.751L14,8.043C13.677,9.735,13.135,11.252,10.118,11.252Z" transform="translate(2.291 7.709)"/>
      <path id="Vector-6" data-name="Vector" d="M0,0H20V20H0Z" fill="none" opacity="0"/>
    </g>
  </g>
</svg>
