<svg xmlns="http://www.w3.org/2000/svg" width="24" height="24" viewBox="0 0 24 24">
  <g id="briefcase" transform="translate(-108 -188)">
    <path id="Vector" d="M14.5,17.49h-8c-4.62,0-5.48-2.15-5.7-4.24L.052,5.24a4.742,4.742,0,0,1,.9-3.76C1.852.48,3.342,0,5.5,0h10c2.17,0,3.66.49,4.55,1.48a4.756,4.756,0,0,1,.9,3.77l-.75,7.99C19.982,15.34,19.122,17.49,14.5,17.49Zm-9-16c-1.69,0-2.85.33-3.44.99a3.236,3.236,0,0,0-.52,2.61l.75,8.01c.17,1.58.6,2.89,4.21,2.89h8c3.6,0,4.04-1.31,4.21-2.9l.75-7.99a3.25,3.25,0,0,0-.52-2.62c-.59-.66-1.75-.99-3.44-.99Z" transform="translate(109.498 193.26)"/>
    <path id="Vector-2" data-name="Vector" d="M8.75,5.5A.755.755,0,0,1,8,4.75v-.8C8,2.17,8,1.5,5.55,1.5H3.95C1.5,1.5,1.5,2.17,1.5,3.95v.8a.755.755,0,0,1-.75.75A.755.755,0,0,1,0,4.75v-.8C0,2.19,0,0,3.95,0h1.6C9.5,0,9.5,2.19,9.5,3.95v.8A.755.755,0,0,1,8.75,5.5Z" transform="translate(115.25 189.25)"/>
    <path id="Vector-3" data-name="Vector" d="M2.75,5.5C0,5.5,0,3.8,0,2.78V1.75C0,.34.34,0,1.75,0h2C5.16,0,5.5.34,5.5,1.75v1C5.5,3.79,5.5,5.5,2.75,5.5ZM1.5,1.5V2.78C1.5,3.81,1.5,4,2.75,4S4,3.84,4,2.77V1.5H1.5Z" transform="translate(117.25 199.25)"/>
    <path id="Vector-4" data-name="Vector" d="M.746,4.526a.746.746,0,0,1-.74-.66.753.753,0,0,1,.65-.84,15.775,15.775,0,0,0,7.3-2.88.745.745,0,0,1,1.05.17.754.754,0,0,1-.17,1.05,17.364,17.364,0,0,1-8,3.16Z" transform="translate(121.254 198.244)"/>
    <path id="Vector-5" data-name="Vector" d="M8.137,4.257h-.09a17.152,17.152,0,0,1-7.72-2.89.749.749,0,0,1,.84-1.24,15.753,15.753,0,0,0,7.04,2.64.751.751,0,0,1,.66.83A.722.722,0,0,1,8.137,4.257Z" transform="translate(109.863 198.523)"/>
    <path id="Vector-6" data-name="Vector" d="M0,0H24V24H0Z" transform="translate(108 188)" fill="none" opacity="0"/>
  </g>
</svg>
