<svg xmlns="http://www.w3.org/2000/svg" width="28" height="28" viewBox="0 0 28 28">
  <g id="Switch_to_dark_mode" data-name="Switch to dark mode" transform="translate(-145 -170)">
    <circle id="Active" cx="14" cy="14" r="14" transform="translate(145 170)" fill="#007bff"/>
    <g id="sun" transform="translate(116 3)">
      <circle id="Ellipse_528" data-name="Ellipse 528" cx="14" cy="14" r="14" transform="translate(29 167)" fill="#fff" opacity="0"/>
    </g>
    <g id="moon" transform="translate(116 3)">
      <circle id="Ellipse_528-2" data-name="Ellipse 528" cx="14" cy="14" r="14" transform="translate(29 167)" fill="#fff" opacity="0"/>
      <g id="moon-2" data-name="moon" transform="translate(-73 -15)">
        <path id="Vector" d="M12.814,9.285c-.107-.18-.407-.46-1.153-.327a5.64,5.64,0,0,1-1.253.087,5.606,5.606,0,0,1-3.94-1.88,5.378,5.378,0,0,1-.96-5.773C5.8.72,5.6.366,5.449.22S4.935-.147,4.229.146A6.878,6.878,0,0,0,.016,6.952a6.983,6.983,0,0,0,4.693,5.993,6.667,6.667,0,0,0,1.926.367c.107.007.213.013.32.013A7,7,0,0,0,12.6,10.478C13.048,9.858,12.928,9.465,12.814,9.285Z" transform="translate(109.537 189.334)" fill="#fff"/>
        <path id="Vector-2" data-name="Vector" d="M0,0H16V16H0Z" transform="translate(123.998 203.998) rotate(180)" fill="none" opacity="0"/>
      </g>
    </g>
  </g>
</svg>
