<svg xmlns="http://www.w3.org/2000/svg" xmlns:xlink="http://www.w3.org/1999/xlink" width="43" height="43" viewBox="0 0 43 43">
  <defs>
    <clipPath id="clip-path">
      <circle id="Ellipse_517" data-name="Ellipse 517" cx="21.5" cy="21.5" r="21.5" transform="translate(316 373)" fill="#f4f4f5"/>
    </clipPath>
  </defs>
  <g id="EnglishFlagIcon" transform="translate(-316 -373)" clip-path="url(#clip-path)">
    <g id="En" transform="translate(-1420.333 -668.545)">
      <g id="Group_118675" data-name="Group 118675" transform="translate(1729.427 1044.834)">
        <g id="Group_118669" data-name="Group 118669" transform="translate(0 19.868)">
          <path id="Path_54485" data-name="Path 54485" d="M1729.427,1113.707v3.31h64.179v-3.31h-64.179Z" transform="translate(-1729.427 -1113.707)" fill="#fff"/>
        </g>
        <g id="Group_118670" data-name="Group 118670" transform="translate(32.395 13.244)">
          <rect id="Rectangle_12433" data-name="Rectangle 12433" width="31.784" height="3.312" fill="#fff"/>
        </g>
        <g id="Group_118671" data-name="Group 118671" transform="translate(0 26.49)">
          <rect id="Rectangle_12434" data-name="Rectangle 12434" width="64.179" height="3.311" fill="#fff"/>
        </g>
        <g id="Group_118672" data-name="Group 118672" transform="translate(0 33.113)">
          <path id="Path_54486" data-name="Path 54486" d="M1729.427,1156.125a5.445,5.445,0,0,0,.449,2.167h63.28a5.425,5.425,0,0,0,.45-2.167v-1.144h-64.179Z" transform="translate(-1729.427 -1154.981)" fill="#fff"/>
        </g>
        <g id="Group_118673" data-name="Group 118673" transform="translate(32.395 0)">
          <path id="Path_54487" data-name="Path 54487" d="M1861.712,1051.793h-31.334v3.311h31.784v-1.144A5.427,5.427,0,0,0,1861.712,1051.793Z" transform="translate(-1830.378 -1051.793)" fill="#fff"/>
        </g>
        <g id="Group_118674" data-name="Group 118674" transform="translate(32.395 6.623)">
          <rect id="Rectangle_12435" data-name="Rectangle 12435" width="31.784" height="3.311" fill="#fff"/>
        </g>
      </g>
      <g id="Group_118683" data-name="Group 118683" transform="translate(1729.427 1041.545)">
        <g id="Group_118676" data-name="Group 118676" transform="translate(32.395 0)">
          <path id="Path_54488" data-name="Path 54488" d="M1856.707,1041.545h-26.329v3.288h31.334A5.454,5.454,0,0,0,1856.707,1041.545Z" transform="translate(-1830.378 -1041.545)" fill="#bf2033"/>
        </g>
        <g id="Group_118677" data-name="Group 118677" transform="translate(32.395 6.599)">
          <rect id="Rectangle_12436" data-name="Rectangle 12436" width="31.784" height="3.312" fill="#bf2033"/>
        </g>
        <g id="Group_118678" data-name="Group 118678" transform="translate(32.395 13.222)">
          <rect id="Rectangle_12437" data-name="Rectangle 12437" width="31.784" height="3.31" fill="#bf2033"/>
        </g>
        <g id="Group_118679" data-name="Group 118679" transform="translate(32.395 19.845)">
          <rect id="Rectangle_12438" data-name="Rectangle 12438" width="31.784" height="3.312" fill="#bf2033"/>
        </g>
        <g id="Group_118680" data-name="Group 118680" transform="translate(0 26.467)">
          <rect id="Rectangle_12439" data-name="Rectangle 12439" width="64.179" height="3.312" fill="#bf2033"/>
        </g>
        <g id="Group_118681" data-name="Group 118681" transform="translate(0 33.09)">
          <rect id="Rectangle_12440" data-name="Rectangle 12440" width="64.179" height="3.311" fill="#bf2033"/>
        </g>
        <g id="Group_118682" data-name="Group 118682" transform="translate(0.449 39.712)">
          <path id="Path_54489" data-name="Path 54489" d="M1735.833,1168.586H1789.1a5.454,5.454,0,0,0,5.005-3.288h-63.28A5.456,5.456,0,0,0,1735.833,1168.586Z" transform="translate(-1730.827 -1165.298)" fill="#bf2033"/>
        </g>
      </g>
      <g id="Group_118684" data-name="Group 118684" transform="translate(1729.427 1041.545)">
        <path id="Path_54490" data-name="Path 54490" d="M1761.822,1061.39v-19.845h-26.939a5.437,5.437,0,0,0-4.095,1.859h.819l.3-.916.3.916h.963l-.779.567.3.916-.779-.567-.78.567.3-.916-.693-.5a5.428,5.428,0,0,0-1.3,3.533v17.7h32.395Zm-1.981-2.535-.78-.566-.779.566.3-.915-.778-.566h.963l.3-.917.3.917h.963l-.779.566Zm-25.079-.207.3.916h.964l-.78.567.3.916-.779-.566-.779.566.3-.916-.78-.567h.963Zm2.123-.708-.779-.566h.963l.3-.917.3.917h.964l-.78.566.3.915-.78-.566-.779.566Zm-.816-9.886h.962l.3-.917.3.917h.963l-.78.566.3.916-.78-.566-.78.566.3-.916Zm5.424,0h.963l.3-.917.3.917h.964l-.779.565.3.917-.78-.566-.779.566.3-.916Zm5.424,0h.963l.3-.917.3.917h.964l-.78.566.3.916-.779-.566-.779.566.3-.916Zm5.423,0h.964l.3-.917.3.917h.963l-.779.566.3.916-.78-.566-.779.566.3-.916Zm-.152,7-.779.567.3.917-.78-.567-.78.567.3-.917-.779-.566h.963l.3-.916.3.916Zm-.373,6-.78-.566-.779.566.3-.916-.78-.567h.963l.3-.916.3.916h.963l-.78.567Zm-5.051-6-.779.567.3.917-.78-.567-.779.567.3-.917-.778-.567h.962l.3-.916.3.916Zm-.374,6-.78-.566-.779.566.3-.916-.779-.567h.963l.3-.916.3.916h.963l-.78.567Zm-2.12-10.49h.963l.3-.916.3.916h.963l-.78.567.3.916-.78-.566-.778.566.3-.916Zm4.752,3.807-.779-.565-.779.565.3-.916-.779-.565h.963l.3-.917.3.917h.963l-.778.565Zm-6.2-2.4.3.917h.963l-.78.566.3.915-.779-.566-.779.566.3-.915-.779-.565h.962Zm11.629,2.4-.78-.566-.779.566.3-.915-.78-.565h.964l.3-.917.3.917h.962l-.779.565Zm-2.712-2.324-.78-.566-.78.566.3-.916-.78-.566h.964l.3-.916.3.916h.964l-.78.566Zm-12.888-1.482h.963l.3-.916.3.916h.963l-.779.566.3.916-.779-.566-.779.566.3-.916Zm-1.451,1.408.3.917h.963l-.78.565.3.915-.78-.565-.779.565.3-.916-.778-.565h.962Zm2.682,2.168.3.916h.963l-.779.567.3.917-.779-.568-.78.568.3-.917-.78-.567h.963Zm.888,6.914-.779-.566-.779.566.3-.916-.779-.567h.964l.3-.916.3.916h.963l-.78.567Zm1.344-3.107-.779-.567h.963l.3-.917.3.917h.964l-.779.566.3.916-.78-.566-.779.566Zm5.424,0-.779-.566h.963l.3-.917.3.917h.963l-.779.566.3.915-.779-.566-.78.566Zm5.424,0-.78-.566h.963l.3-.917.3.917h.964l-.78.567.3.915-.779-.566-.779.566Zm4.081,3.107-.78-.566-.779.566.3-.916-.779-.567h.963l.3-.916.3.916h.963l-.779.567Zm.374-6-.779.567.3.917-.78-.567-.779.567.3-.917-.779-.567h.963l.3-.916.3.916Zm2.259-.685-.78-.566-.778.566.3-.915-.779-.566h.962l.3-.917.3.917h.963l-.78.565Zm-2.713-2.324-.779-.566-.78.566.3-.916-.78-.567h.963l.3-.916.3.916h.964l-.779.566Zm2.647-2.5-.78-.566-.779.566.3-.916-.778-.566h.962l.3-.917.3.917h.963l-.779.566Zm-.779-7.048.3.916h.963l-.779.567.3.916-.78-.566-.779.566.3-.916-.778-.567h.962Zm-2.415,3.241h.963l-.779.566.3.916-.779-.566-.78.566.3-.915-.779-.566h.964l.3-.916Zm-3.01-3.241.3.916h.963l-.779.567.3.916-.78-.567-.779.567.3-.916-.78-.567h.964Zm-2.414,3.241h.964l-.779.566.3.915-.779-.566-.779.566.3-.915-.779-.566h.964l.3-.916Zm-3.009-3.241.3.916h.964l-.78.567.3.916-.779-.566-.779.566.3-.916-.779-.567h.963Zm-2.415,3.241h.964l-.78.566.3.916-.78-.566-.778.566.3-.915-.779-.566h.963l.3-.916Zm-3.009-3.241.3.916h.965l-.779.567.3.916-.78-.566-.779.566.3-.916-.779-.567h.963Zm-2.414,3.241h.963l-.78.566.3.915-.78-.566-.779.566.3-.915-.78-.566h.964l.3-.916Zm-3.01-3.241.3.916h.963l-.78.567.3.916-.78-.566-.78.566.3-.916-.778-.567h.962Zm-2.712,2.325.3.916h.963l-.779.566.3.915-.779-.566-.779.566.3-.915-.781-.566h.964Zm-3.973,3.241h.963l.3-.917.3.917h.963l-.779.566.3.916-.779-.566-.78.566.3-.916Zm2.777,2.5h.963l.3-.916.3.916h.963l-.779.567.3.916-.78-.566-.779.566.3-.916Zm-.671,3.807-.779-.566-.779.566.3-.915-.779-.566h.962l.3-.917.3.917h.963l-.78.566Zm1.9-.23.3.916h.963l-.779.567.3.917-.779-.567-.779.567.3-.917-.779-.567h.963Zm-3.973,3.241h.963l.3-.917.3.917h.963l-.78.566.3.915-.779-.566-.779.566.3-.915Zm2.148,6-.78-.566-.778.566.3-.916-.779-.566h.963l.3-.916.3.916h.963l-.779.566Zm5.424,0-.78-.566-.778.566.3-.916-.779-.566h.964l.3-.916.3.916h.963l-.78.566Zm5.424,0-.78-.566-.779.566.3-.916-.78-.566h.963l.3-.916.3.916h.963l-.78.566Zm5.424,0-.779-.566-.779.566.3-.916-.78-.566h.964l.3-.916.3.916h.963l-.779.566Zm5.423,0-.779-.566-.779.566.3-.915-.779-.566h.963l.3-.916.3.916h.963l-.779.566Zm5.425,0-.78-.566-.779.566.3-.916-.779-.566h.964l.3-.916.3.916h.964l-.78.566Z" transform="translate(-1729.427 -1041.545)" fill="#213065"/>
      </g>
      <g id="Group_118735" data-name="Group 118735" transform="translate(1730.643 1042.488)">
        <g id="Group_118685" data-name="Group 118685" transform="translate(0.086)">
          <path id="Path_54491" data-name="Path 54491" d="M1733.882,1046.882l.78-.567.78.567-.3-.916.78-.567h-.963l-.3-.916-.3.916h-.819c-.019.021-.039.041-.057.063l.694.5Z" transform="translate(-1733.487 -1044.483)" fill="#fff"/>
        </g>
        <g id="Group_118686" data-name="Group 118686" transform="translate(5.425 0)">
          <path id="Path_54492" data-name="Path 54492" d="M1750.6,1046.882l.78-.566.78.566-.3-.916.78-.567h-.963l-.3-.916-.3.916h-.963l.778.567Z" transform="translate(-1750.122 -1044.484)" fill="#fff"/>
        </g>
        <g id="Group_118687" data-name="Group 118687" transform="translate(10.848 0)">
          <path id="Path_54493" data-name="Path 54493" d="M1767.5,1046.882l.779-.566.78.566-.3-.916.78-.567h-.964l-.3-.916-.3.916h-.964l.779.567Z" transform="translate(-1767.022 -1044.484)" fill="#fff"/>
        </g>
        <g id="Group_118688" data-name="Group 118688" transform="translate(16.272 0)">
          <path id="Path_54494" data-name="Path 54494" d="M1784.407,1046.882l.779-.566.779.566-.3-.916.78-.567h-.964l-.3-.916-.3.916h-.963l.779.567Z" transform="translate(-1783.925 -1044.484)" fill="#fff"/>
        </g>
        <g id="Group_118689" data-name="Group 118689" transform="translate(21.695 0)">
          <path id="Path_54495" data-name="Path 54495" d="M1801.307,1046.882l.779-.567.779.567-.3-.916.779-.567h-.963l-.3-.916-.3.916h-.964l.78.567Z" transform="translate(-1800.825 -1044.484)" fill="#fff"/>
        </g>
        <g id="Group_118690" data-name="Group 118690" transform="translate(27.12 0)">
          <path id="Path_54496" data-name="Path 54496" d="M1818.213,1046.882l.778-.566.78.566-.3-.916.779-.567h-.963l-.3-.916-.3.916h-.962l.779.567Z" transform="translate(-1817.731 -1044.484)" fill="#fff"/>
        </g>
        <g id="Group_118691" data-name="Group 118691" transform="translate(2.711 2.325)">
          <path id="Path_54497" data-name="Path 54497" d="M1742.15,1054.125l.779-.566.779.566-.3-.916.779-.566h-.963l-.3-.916-.3.916h-.964l.78.566Z" transform="translate(-1741.667 -1051.728)" fill="#fff"/>
        </g>
        <g id="Group_118692" data-name="Group 118692" transform="translate(8.136 2.325)">
          <path id="Path_54498" data-name="Path 54498" d="M1759.053,1054.125l.779-.566.78.566-.3-.916.78-.566h-.963l-.3-.916-.3.916h-.963l.78.566Z" transform="translate(-1758.571 -1051.728)" fill="#fff"/>
        </g>
        <g id="Group_118693" data-name="Group 118693" transform="translate(13.56 2.325)">
          <path id="Path_54499" data-name="Path 54499" d="M1775.956,1054.125l.779-.566.78.566-.3-.916.78-.566h-.964l-.3-.916-.3.916h-.963l.78.566Z" transform="translate(-1775.474 -1051.728)" fill="#fff"/>
        </g>
        <g id="Group_118694" data-name="Group 118694" transform="translate(18.984 2.325)">
          <path id="Path_54500" data-name="Path 54500" d="M1792.858,1054.125l.778-.566.78.566-.3-.916.78-.566h-.964l-.3-.916-.3.916h-.963l.779.566Z" transform="translate(-1792.376 -1051.728)" fill="#fff"/>
        </g>
        <g id="Group_118695" data-name="Group 118695" transform="translate(24.407 2.325)">
          <path id="Path_54501" data-name="Path 54501" d="M1809.758,1054.125l.78-.566.779.566-.3-.916.779-.566h-.964l-.3-.916-.3.916h-.964l.78.566Z" transform="translate(-1809.276 -1051.728)" fill="#fff"/>
        </g>
        <g id="Group_118696" data-name="Group 118696" transform="translate(0 4.649)">
          <path id="Path_54502" data-name="Path 54502" d="M1733.7,1061.369l.78-.567.78.567-.3-.917.78-.566h-.963l-.3-.917-.3.917h-.962l.78.566Z" transform="translate(-1733.218 -1058.97)" fill="#fff"/>
        </g>
        <g id="Group_118697" data-name="Group 118697" transform="translate(5.425 4.649)">
          <path id="Path_54503" data-name="Path 54503" d="M1750.6,1061.369l.78-.567.78.567-.3-.917.78-.566h-.963l-.3-.917-.3.917h-.963l.778.566Z" transform="translate(-1750.122 -1058.97)" fill="#fff"/>
        </g>
        <g id="Group_118698" data-name="Group 118698" transform="translate(10.848 4.649)">
          <path id="Path_54504" data-name="Path 54504" d="M1767.5,1061.369l.779-.567.78.567-.3-.917.78-.565h-.964l-.3-.917-.3.917h-.964l.779.566Z" transform="translate(-1767.022 -1058.97)" fill="#fff"/>
        </g>
        <g id="Group_118699" data-name="Group 118699" transform="translate(16.272 4.649)">
          <path id="Path_54505" data-name="Path 54505" d="M1784.407,1061.369l.779-.567.779.567-.3-.917.78-.566h-.964l-.3-.917-.3.917h-.963l.779.566Z" transform="translate(-1783.925 -1058.97)" fill="#fff"/>
        </g>
        <g id="Group_118700" data-name="Group 118700" transform="translate(21.695 4.649)">
          <path id="Path_54506" data-name="Path 54506" d="M1801.307,1061.369l.779-.567.779.567-.3-.916.779-.566h-.963l-.3-.917-.3.917h-.964l.78.566Z" transform="translate(-1800.825 -1058.97)" fill="#fff"/>
        </g>
        <g id="Group_118701" data-name="Group 118701" transform="translate(27.12 4.649)">
          <path id="Path_54507" data-name="Path 54507" d="M1818.213,1061.369l.778-.567.78.567-.3-.916.779-.566h-.963l-.3-.917-.3.917h-.962l.779.566Z" transform="translate(-1817.731 -1058.97)" fill="#fff"/>
        </g>
        <g id="Group_118702" data-name="Group 118702" transform="translate(2.777 7.152)">
          <path id="Path_54508" data-name="Path 54508" d="M1743.431,1067.688l-.3-.917-.3.917h-.963l.78.566-.3.916.779-.566.78.566-.3-.916.779-.566Z" transform="translate(-1741.872 -1066.771)" fill="#fff"/>
        </g>
        <g id="Group_118703" data-name="Group 118703" transform="translate(8.202 7.152)">
          <path id="Path_54509" data-name="Path 54509" d="M1760.334,1067.688l-.3-.917-.3.917h-.962l.779.566-.3.916.779-.566.779.566-.3-.916.779-.566Z" transform="translate(-1758.777 -1066.771)" fill="#fff"/>
        </g>
        <g id="Group_118704" data-name="Group 118704" transform="translate(13.625 7.152)">
          <path id="Path_54510" data-name="Path 54510" d="M1777.236,1067.688l-.3-.917-.3.917h-.963l.779.566-.3.916.779-.566.78.566-.3-.916.78-.566Z" transform="translate(-1775.677 -1066.771)" fill="#fff"/>
        </g>
        <g id="Group_118705" data-name="Group 118705" transform="translate(19.049 7.152)">
          <path id="Path_54511" data-name="Path 54511" d="M1794.137,1067.688l-.3-.917-.3.917h-.964l.779.566-.3.916.78-.566.78.566-.3-.916.78-.566Z" transform="translate(-1792.579 -1066.771)" fill="#fff"/>
        </g>
        <g id="Group_118706" data-name="Group 118706" transform="translate(24.472 7.152)">
          <path id="Path_54512" data-name="Path 54512" d="M1811.039,1067.688l-.3-.917-.3.917h-.963l.78.566-.3.916.78-.566.779.566-.3-.916.779-.566Z" transform="translate(-1809.48 -1066.771)" fill="#fff"/>
        </g>
        <g id="Group_118707" data-name="Group 118707" transform="translate(0.066 9.477)">
          <path id="Path_54513" data-name="Path 54513" d="M1734.982,1074.934l-.3-.917-.3.917h-.963l.779.565-.3.916.779-.566.78.566-.3-.916.78-.565Z" transform="translate(-1733.423 -1074.017)" fill="#fff"/>
        </g>
        <g id="Group_118708" data-name="Group 118708" transform="translate(5.49 9.477)">
          <path id="Path_54514" data-name="Path 54514" d="M1751.884,1074.934l-.3-.917-.3.917h-.963l.779.565-.3.916.779-.566.779.566-.3-.916.78-.565Z" transform="translate(-1750.325 -1074.017)" fill="#fff"/>
        </g>
        <g id="Group_118709" data-name="Group 118709" transform="translate(10.913 9.477)">
          <path id="Path_54515" data-name="Path 54515" d="M1768.784,1074.934l-.3-.917-.3.917h-.963l.779.565-.3.916.779-.566.779.566-.3-.916.78-.565Z" transform="translate(-1767.226 -1074.017)" fill="#fff"/>
        </g>
        <g id="Group_118710" data-name="Group 118710" transform="translate(16.337 9.477)">
          <path id="Path_54516" data-name="Path 54516" d="M1785.687,1074.934l-.3-.917-.3.917h-.963l.779.565-.3.916.779-.566.779.566-.3-.916.778-.565Z" transform="translate(-1784.128 -1074.017)" fill="#fff"/>
        </g>
        <g id="Group_118711" data-name="Group 118711" transform="translate(21.76 9.477)">
          <path id="Path_54517" data-name="Path 54517" d="M1802.588,1074.934l-.3-.917-.3.917h-.963l.78.565-.3.916.779-.566.779.566-.3-.916.779-.565Z" transform="translate(-1801.028 -1074.017)" fill="#fff"/>
        </g>
        <g id="Group_118712" data-name="Group 118712" transform="translate(27.185 9.477)">
          <path id="Path_54518" data-name="Path 54518" d="M1819.491,1074.934l-.3-.917-.3.917h-.962l.78.565-.3.916.778-.566.78.566-.3-.916.78-.565Z" transform="translate(-1817.933 -1074.017)" fill="#fff"/>
        </g>
        <g id="Group_118713" data-name="Group 118713" transform="translate(2.75 11.645)">
          <path id="Path_54519" data-name="Path 54519" d="M1742.268,1083.171l.779-.567.779.567-.3-.917.779-.566h-.963l-.3-.916-.3.916h-.963l.779.566Z" transform="translate(-1741.786 -1080.772)" fill="#fff"/>
        </g>
        <g id="Group_118714" data-name="Group 118714" transform="translate(8.173 11.645)">
          <path id="Path_54520" data-name="Path 54520" d="M1759.17,1083.171l.78-.568.779.568-.3-.917.779-.566h-.963l-.3-.916-.3.916h-.963l.78.566Z" transform="translate(-1758.689 -1080.772)" fill="#fff"/>
        </g>
        <g id="Group_118715" data-name="Group 118715" transform="translate(13.597 11.645)">
          <path id="Path_54521" data-name="Path 54521" d="M1776.073,1083.171l.779-.567.78.567-.3-.917.779-.566h-.963l-.3-.916-.3.916h-.963l.778.566Z" transform="translate(-1775.591 -1080.772)" fill="#fff"/>
        </g>
        <g id="Group_118716" data-name="Group 118716" transform="translate(19.021 11.645)">
          <path id="Path_54522" data-name="Path 54522" d="M1792.975,1083.171l.779-.567.78.567-.3-.917.779-.566h-.964l-.3-.916-.3.916h-.962l.778.566Z" transform="translate(-1792.493 -1080.772)" fill="#fff"/>
        </g>
        <g id="Group_118717" data-name="Group 118717" transform="translate(24.444 11.645)">
          <path id="Path_54523" data-name="Path 54523" d="M1809.876,1083.171l.779-.567.78.567-.3-.917.78-.566h-.964l-.3-.916-.3.916h-.963l.779.566Z" transform="translate(-1809.394 -1080.772)" fill="#fff"/>
        </g>
        <g id="Group_118718" data-name="Group 118718" transform="translate(0.038 13.969)">
          <path id="Path_54524" data-name="Path 54524" d="M1733.817,1090.413l.779-.566.78.566-.3-.916.78-.566h-.963l-.3-.916-.3.916h-.963l.779.567Z" transform="translate(-1733.335 -1088.015)" fill="#fff"/>
        </g>
        <g id="Group_118719" data-name="Group 118719" transform="translate(5.461 13.969)">
          <path id="Path_54525" data-name="Path 54525" d="M1750.72,1090.413l.779-.566.78.566-.3-.916.78-.566h-.964l-.3-.916-.3.916h-.963l.779.566Z" transform="translate(-1750.238 -1088.015)" fill="#fff"/>
        </g>
        <g id="Group_118720" data-name="Group 118720" transform="translate(10.885 13.969)">
          <path id="Path_54526" data-name="Path 54526" d="M1767.62,1090.413l.779-.566.78.566-.3-.916.779-.566h-.964l-.3-.916-.3.916h-.963l.78.567Z" transform="translate(-1767.138 -1088.015)" fill="#fff"/>
        </g>
        <g id="Group_118721" data-name="Group 118721" transform="translate(16.309 13.969)">
          <path id="Path_54527" data-name="Path 54527" d="M1784.522,1090.413l.78-.566.779.566-.3-.916.779-.566h-.963l-.3-.916-.3.916h-.963l.779.566Z" transform="translate(-1784.04 -1088.015)" fill="#fff"/>
        </g>
        <g id="Group_118722" data-name="Group 118722" transform="translate(21.733 13.969)">
          <path id="Path_54528" data-name="Path 54528" d="M1801.424,1090.413l.779-.566.779.566-.3-.915.78-.567h-.964l-.3-.916-.3.916h-.963l.78.566Z" transform="translate(-1800.942 -1088.015)" fill="#fff"/>
        </g>
        <g id="Group_118723" data-name="Group 118723" transform="translate(27.157 13.969)">
          <path id="Path_54529" data-name="Path 54529" d="M1818.328,1090.413l.779-.566.779.566-.3-.916.779-.566h-.963l-.3-.916-.3.916h-.963l.779.566Z" transform="translate(-1817.847 -1088.015)" fill="#fff"/>
        </g>
        <g id="Group_118724" data-name="Group 118724" transform="translate(2.857 16.16)">
          <path id="Path_54530" data-name="Path 54530" d="M1743.68,1095.759l-.3-.917-.3.917h-.963l.779.567-.3.916.779-.566.779.566-.3-.917.78-.566Z" transform="translate(-1742.122 -1094.842)" fill="#fff"/>
        </g>
        <g id="Group_118725" data-name="Group 118725" transform="translate(8.281 16.16)">
          <path id="Path_54531" data-name="Path 54531" d="M1760.582,1095.759l-.3-.917-.3.917h-.964l.78.567-.3.916.779-.566.779.566-.3-.916.781-.567Z" transform="translate(-1759.023 -1094.842)" fill="#fff"/>
        </g>
        <g id="Group_118726" data-name="Group 118726" transform="translate(13.705 16.16)">
          <path id="Path_54532" data-name="Path 54532" d="M1777.486,1095.759l-.3-.917-.3.917h-.963l.779.566-.3.917.779-.566.78.566-.3-.916.781-.567Z" transform="translate(-1775.927 -1094.842)" fill="#fff"/>
        </g>
        <g id="Group_118727" data-name="Group 118727" transform="translate(19.128 16.16)">
          <path id="Path_54533" data-name="Path 54533" d="M1794.387,1095.759l-.3-.917-.3.917h-.963l.78.566-.3.917.779-.566.78.566-.3-.916.779-.567Z" transform="translate(-1792.827 -1094.842)" fill="#fff"/>
        </g>
        <g id="Group_118728" data-name="Group 118728" transform="translate(24.552 16.16)">
          <path id="Path_54534" data-name="Path 54534" d="M1811.288,1095.759l-.3-.917-.3.917h-.963l.779.567-.3.916.779-.566.78.566-.3-.917.779-.566Z" transform="translate(-1809.729 -1094.842)" fill="#fff"/>
        </g>
        <g id="Group_118729" data-name="Group 118729" transform="translate(0.145 18.485)">
          <path id="Path_54535" data-name="Path 54535" d="M1735.229,1103.005l-.3-.916-.3.916h-.963l.779.566-.3.915.779-.565.78.565-.3-.915.779-.566Z" transform="translate(-1733.671 -1102.089)" fill="#fff"/>
        </g>
        <g id="Group_118730" data-name="Group 118730" transform="translate(5.569 18.485)">
          <path id="Path_54536" data-name="Path 54536" d="M1752.131,1103.005l-.3-.916-.3.916h-.963l.779.566-.3.915.778-.566.78.566-.3-.915.78-.566Z" transform="translate(-1750.573 -1102.089)" fill="#fff"/>
        </g>
        <g id="Group_118731" data-name="Group 118731" transform="translate(10.993 18.485)">
          <path id="Path_54537" data-name="Path 54537" d="M1769.032,1103.005l-.3-.916-.3.916h-.963l.78.566-.3.915.779-.566.78.566-.3-.915.78-.566Z" transform="translate(-1767.474 -1102.089)" fill="#fff"/>
        </g>
        <g id="Group_118732" data-name="Group 118732" transform="translate(16.416 18.485)">
          <path id="Path_54538" data-name="Path 54538" d="M1785.935,1103.005l-.3-.916-.3.916h-.963l.78.566-.3.915.779-.566.78.566-.3-.915.779-.566Z" transform="translate(-1784.376 -1102.089)" fill="#fff"/>
        </g>
        <g id="Group_118733" data-name="Group 118733" transform="translate(21.841 18.485)">
          <path id="Path_54539" data-name="Path 54539" d="M1802.839,1103.005l-.3-.916-.3.916h-.963l.779.566-.3.915.779-.566.779.566-.3-.915.779-.566Z" transform="translate(-1801.28 -1102.089)" fill="#fff"/>
        </g>
        <g id="Group_118734" data-name="Group 118734" transform="translate(27.264 18.485)">
          <path id="Path_54540" data-name="Path 54540" d="M1820.7,1103.005h-.964l-.3-.916-.3.916h-.964l.779.566-.3.915.779-.565.78.565-.3-.915Z" transform="translate(-1818.181 -1102.089)" fill="#fff"/>
        </g>
      </g>
    </g>
  </g>
</svg>
