<svg xmlns="http://www.w3.org/2000/svg" width="17" height="17" viewBox="0 0 17 17">
  <path id="globe-earth" d="M9.75,1.25a8.5,8.5,0,1,0,8.5,8.5,8.5,8.5,0,0,0-8.5-8.5ZM2.436,9.75a7.254,7.254,0,0,1,.414-2.4c.49,3.566,3.618,3.867,3.753,4.436a11.159,11.159,0,0,1,.055,1.929c.055,1.1,1.573,1.115,2.159,1.985a2.348,2.348,0,0,1,.23,1.332A7.323,7.323,0,0,1,2.436,9.75Zm9.3,7.037c.538-1.687,2.155-2.258,2.32-3.233.132-.782-.9-1.186-1.819-1.3s-.781-1.063-1.432-1.74S9.729,9.88,8.815,9.994s-1.7.04-1.951-.523.07-.831-.6-1.528A.688.688,0,0,1,6.6,6.773c.474-.115,1.318.712,1.812.614,1.488-.307-.3-3.221,1.94-3.953a1.645,1.645,0,0,0,.942-.825,7.293,7.293,0,0,1,3.362,1.74,3.818,3.818,0,0,1,.285,2.016c-.3.923-1.049,1.587-.23,3.1.855,1.577,1.382,1.791,1.766,1.357a1.382,1.382,0,0,1,.548-.368,7.325,7.325,0,0,1-5.294,6.337Z" transform="translate(-1.25 -1.25)"/>
</svg>
