<svg id="Group_11099" data-name="Group 11099" xmlns="http://www.w3.org/2000/svg" width="38.276" height="34.914" viewBox="0 0 38.276 34.914">
  <path id="Path_3" data-name="Path 3" d="M11.149,0H25.321L37.374,21.841,30.287,34.913ZM13.62,1.933,15.364.74,15.9,1.8,14.156,2.99ZM32.543,19.962l1.744-1.194.536,1.057-1.744,1.194Zm-2.336-4.311,1.717-1.193.564,1.057-1.744,1.193Zm-2.336-4.31,1.718-1.193.564,1.084-1.746,1.193ZM25.51,7.03l1.743-1.193.565,1.085L26.073,8.114ZM23.174,2.746l1.745-1.192.563,1.056L23.738,3.8Zm4.457,25,1.744-1.193.536,1.085-1.718,1.193ZM25.3,23.432l1.743-1.194.537,1.085-1.717,1.194Zm-2.336-4.284L24.7,17.955l.537,1.057L23.5,20.206Zm-2.335-4.311,1.745-1.193.537,1.059-1.745,1.192Zm-2.335-4.31,1.744-1.193.538,1.083-1.745,1.193Zm-2.336-4.31L17.7,5.023l.538,1.085L16.492,7.3Z" transform="translate(-11.149 0.001)" fill="#fff" fill-rule="evenodd"/>
  <path id="Path_4" data-name="Path 4" d="M43.071,0H63.738L53.4,18.9Z" transform="translate(-25.462 0.001)" fill="#e3071c" fill-rule="evenodd"/>
</svg>
