<svg id="Icons" xmlns="http://www.w3.org/2000/svg" width="17.96" height="18.394" viewBox="0 0 17.96 18.394">
  <path id="Path_53986" data-name="Path 53986" d="M31.636,20.624a.639.639,0,0,0,1.279,0V9.024l3.121,3.121a.639.639,0,1,0,.9-.9l-4.2-4.2a.637.637,0,0,0-.446-.187h-.042a.638.638,0,0,0-.477.187l-4.2,4.2a.639.639,0,0,0,.9.9l3.165-3.165Z" transform="translate(-23.22 -6.849)" fill="#040415"/>
  <path id="Path_53987" data-name="Path 53987" d="M9.147,54.806a.639.639,0,0,0-1.279,0v4.9a2.771,2.771,0,0,0,2.771,2.771H23.057A2.771,2.771,0,0,0,25.828,59.7v-4.9a.639.639,0,0,0-1.279,0v4.9A1.492,1.492,0,0,1,23.057,61.2H10.639A1.492,1.492,0,0,1,9.147,59.7Z" transform="translate(-7.868 -44.081)" fill="#040415"/>
</svg>
