<svg xmlns="http://www.w3.org/2000/svg" width="28" height="28" viewBox="0 0 28 28">
  <g id="Switch_to_dark_mode" data-name="Switch to dark mode" transform="translate(-145 -170)">
    <circle id="Active" cx="14" cy="14" r="14" transform="translate(145 170)" fill="#007bff"/>
    <g id="sun" transform="translate(116 3)">
      <circle id="Ellipse_528" data-name="Ellipse 528" cx="14" cy="14" r="14" transform="translate(29 167)" fill="#fff" opacity="0"/>
      <g id="sun-2" data-name="sun" transform="translate(-136.999 -15)">
        <path id="Vector" d="M9.332,4.666A4.666,4.666,0,1,1,4.666,0,4.666,4.666,0,0,1,9.332,4.666Z" transform="translate(175.333 191.333)" fill="#fff"/>
        <path id="Vector-2" data-name="Vector" d="M7.332,14.638A.646.646,0,0,1,6.666,14v-.053a.667.667,0,1,1,1.333,0A.692.692,0,0,1,7.332,14.638Zm4.759-1.88a.683.683,0,0,1-.473-.193l-.087-.087a.665.665,0,0,1,.94-.94l.087.087a.664.664,0,0,1,0,.94A.656.656,0,0,1,12.091,12.758Zm-9.519,0a.683.683,0,0,1-.473-.193.664.664,0,0,1,0-.94l.087-.087a.665.665,0,0,1,.94.94l-.087.087A.667.667,0,0,1,2.573,12.758ZM14,8h-.053a.667.667,0,1,1,0-1.333.692.692,0,0,1,.693.667A.646.646,0,0,1,14,8ZM.72,8H.667a.667.667,0,1,1,0-1.333.692.692,0,0,1,.693.667A.646.646,0,0,1,.72,8ZM12,3.326a.683.683,0,0,1-.473-.193.664.664,0,0,1,0-.94l.087-.087a.665.665,0,0,1,.94.94l-.087.087A.656.656,0,0,1,12,3.326Zm-9.345,0a.683.683,0,0,1-.473-.193L2.1,3.04a.665.665,0,1,1,.94-.94l.087.087a.664.664,0,0,1,0,.94A.647.647,0,0,1,2.66,3.326ZM7.332,1.36A.646.646,0,0,1,6.666.72V.667A.667.667,0,1,1,8,.667.692.692,0,0,1,7.332,1.36Z" transform="translate(172.667 188.667)" fill="#fff"/>
        <path id="Vector-3" data-name="Vector" d="M0,0H16V16H0Z" transform="translate(187.998 203.998) rotate(180)" fill="none" opacity="0"/>
      </g>
    </g>
  </g>
</svg>
