<svg id="LinkDanIcon" xmlns="http://www.w3.org/2000/svg" width="18.669" height="18.404" viewBox="0 0 18.669 18.404">
  <path id="Path_265" data-name="Path 265" d="M3876.242,1115.086l3.817-.062.2,12.272-3.817.062Zm1.81-6.131a2.212,2.212,0,1,1-2.177,2.248,2.212,2.212,0,0,1,2.177-2.248" transform="translate(-3875.875 -1108.954)" fill="#101010"/>
  <path id="Path_266" data-name="Path 266" d="M3894.845,1125.55l3.657-.059.027,1.678h.052a4.008,4.008,0,0,1,3.577-2.041c3.861-.063,4.616,2.467,4.67,5.772l.109,6.73-3.813.062-.1-5.968c-.023-1.423-.078-3.254-2.035-3.222-1.985.032-2.262,1.588-2.236,3.189l.1,6.07-3.81.062Z" transform="translate(-3888.268 -1119.519)" fill="#101010"/>
</svg>
