<svg xmlns="http://www.w3.org/2000/svg" width="64" height="64" viewBox="0 0 64 64">
  <g id="Opportunity" transform="translate(-156)">
    <circle id="Ellipse_3" data-name="Ellipse 3" cx="32" cy="32" r="32" transform="translate(156)" fill="#040415"/>
    <g id="ICON" transform="translate(163.225 7.225)">
      <rect id="BG" width="50" height="50" transform="translate(-0.225 -0.225)" fill="none" opacity="0"/>
      <g id="Light" transform="translate(9.775 9.775)">
        <path id="Vector" d="M18.128,21.862h-10c-5.775,0-6.85-2.687-7.125-5.3L.065,6.55A5.928,5.928,0,0,1,1.19,1.85C2.315.6,4.178,0,6.878,0h12.5c2.712,0,4.575.612,5.687,1.85A5.945,5.945,0,0,1,26.19,6.562l-.937,9.987C24.978,19.175,23.9,21.862,18.128,21.862Zm-11.25-20c-2.113,0-3.563.412-4.3,1.237-.613.675-.812,1.712-.65,3.262l.937,10.012c.213,1.975.75,3.612,5.263,3.612h10c4.5,0,5.05-1.637,5.262-3.625l.938-9.987c.163-1.562-.037-2.6-.65-3.275-.737-.825-2.187-1.237-4.3-1.237Z" transform="translate(1.872 6.575)" fill="#fff"/>
        <path id="Vector-2" data-name="Vector" d="M10.938,6.875A.944.944,0,0,1,10,5.937v-1c0-2.225,0-3.062-3.062-3.062h-2c-3.062,0-3.062.837-3.062,3.062v1a.944.944,0,0,1-.937.937A.944.944,0,0,1,0,5.937v-1C0,2.737,0,0,4.937,0h2c4.938,0,4.938,2.737,4.938,4.937v1A.944.944,0,0,1,10.938,6.875Z" transform="translate(9.063 1.562)" fill="#fff"/>
        <path id="Vector-3" data-name="Vector" d="M3.438,6.875C0,6.875,0,4.75,0,3.475V2.187C0,.425.425,0,2.187,0h2.5C6.45,0,6.875.425,6.875,2.187v1.25C6.875,4.737,6.875,6.875,3.438,6.875Zm-1.562-5v1.6C1.875,4.762,1.875,5,3.438,5S5,4.8,5,3.462V1.875H1.875Z" transform="translate(11.563 14.062)" fill="#fff"/>
        <path id="Vector-4" data-name="Vector" d="M.932,5.658a.932.932,0,0,1-.925-.825A.942.942,0,0,1,.82,3.783,19.719,19.719,0,0,0,9.945.183.931.931,0,0,1,11.257.4a.943.943,0,0,1-.212,1.312,21.705,21.705,0,0,1-10,3.95Z" transform="translate(16.568 12.805)" fill="#fff"/>
        <path id="Vector-5" data-name="Vector" d="M10.172,5.322h-.113A21.44,21.44,0,0,1,.409,1.709.936.936,0,1,1,1.459.159a19.691,19.691,0,0,0,8.8,3.3A.939.939,0,0,1,11.084,4.5.9.9,0,0,1,10.172,5.322Z" transform="translate(2.328 13.153)" fill="#fff"/>
        <path id="Vector-6" data-name="Vector" d="M0,0H30V30H0Z" fill="none" opacity="0"/>
      </g>
    </g>
  </g>
</svg>
