<svg xmlns="http://www.w3.org/2000/svg" width="24" height="24" viewBox="0 0 24 24">
  <g id="paperclip-2" transform="translate(-556 -188)">
    <path id="Vector" d="M10.29,18.355a4.245,4.245,0,0,1-3.01-7.25l2.48-2.47A.75.75,0,0,1,10.82,9.7l-2.48,2.47a2.751,2.751,0,0,0,3.89,3.89l3.89-3.89a6.251,6.251,0,1,0-8.84-8.84L3.04,7.565a5.239,5.239,0,0,0,0,7.42.75.75,0,1,1-1.06,1.06,6.736,6.736,0,0,1,0-9.54l4.24-4.24a7.75,7.75,0,1,1,10.96,10.96l-3.89,3.89A4.216,4.216,0,0,1,10.29,18.355Z" transform="translate(558.04 190.985)" fill="#292d32"/>
    <path id="Vector-2" data-name="Vector" d="M0,0H24V24H0Z" transform="translate(556 188)" fill="none" opacity="0"/>
  </g>
</svg>
