<svg xmlns="http://www.w3.org/2000/svg" width="17" height="17" viewBox="0 0 17 17">
  <path id="path" d="M17.877,11.773a6.9,6.9,0,0,1-6.1,6.1v.85a.773.773,0,1,1-1.545,0v-.85a6.761,6.761,0,0,1-6.1-6.1h-.85a.773.773,0,0,1,0-1.545h.85a6.761,6.761,0,0,1,6.1-6.1v-.85a.773.773,0,1,1,1.545,0v.85a6.9,6.9,0,0,1,6.1,6.1h.85a.773.773,0,1,1,0,1.545ZM11,16.409A5.409,5.409,0,1,0,5.591,11,5.376,5.376,0,0,0,11,16.409Zm0-2.318A3.091,3.091,0,1,1,14.091,11,3.1,3.1,0,0,1,11,14.091Zm0-1.545A1.545,1.545,0,1,0,9.455,11,1.55,1.55,0,0,0,11,12.545Z" transform="translate(-2.5 -2.5)"/>
</svg>
