<svg xmlns="http://www.w3.org/2000/svg" width="40" height="40" viewBox="0 0 40 40">
  <g id="request_is_done" data-name="request is done" transform="translate(-319 -181)">
    <g id="Ellipse_519" data-name="Ellipse 519" transform="translate(319 181)" fill="#fff" stroke="#f78831" stroke-width="1">
      <circle cx="20" cy="20" r="20" stroke="none"/>
      <circle cx="20" cy="20" r="19.5" fill="none"/>
    </g>
    <g id="vuesax_outline_clock" data-name="vuesax/outline/clock" transform="translate(157.029 3.029)">
      <g id="clock" transform="translate(172 188)">
        <path id="Vector" d="M8.933,17.865a8.933,8.933,0,1,1,8.933-8.933A8.94,8.94,0,0,1,8.933,17.865Zm0-16.619a7.686,7.686,0,1,0,7.686,7.686A7.7,7.7,0,0,0,8.933,1.246Z" transform="translate(1.039 1.039)" fill="#f78831"/>
        <path id="Vector-2" data-name="Vector" d="M4.005,7.62a.556.556,0,0,1-.316-.091L1.113,5.991A2.451,2.451,0,0,1,0,4.03V.623A.628.628,0,0,1,.623,0a.628.628,0,0,1,.623.623V4.03a1.228,1.228,0,0,0,.507.889L4.329,6.456a.622.622,0,0,1,.216.856A.64.64,0,0,1,4.005,7.62Z" transform="translate(9.049 5.617)" fill="#f78831"/>
        <path id="Vector-3" data-name="Vector" d="M0,0H19.942V19.942H0Z" fill="none" opacity="0"/>
      </g>
    </g>
  </g>
</svg>
