<svg xmlns="http://www.w3.org/2000/svg" width="18.994" height="19" viewBox="0 0 18.994 19">
  <path id="verify" d="M20.578,10.3,19.287,8.8a2.105,2.105,0,0,1-.446-1.2V5.987a1.84,1.84,0,0,0-1.833-1.833H15.393a2.131,2.131,0,0,1-1.2-.446L12.7,2.416a1.914,1.914,0,0,0-2.393,0l-1.491,1.3a2.191,2.191,0,0,1-1.2.437H5.971A1.84,1.84,0,0,0,4.138,5.987V7.612A2.161,2.161,0,0,1,3.7,8.8l-1.282,1.51a1.912,1.912,0,0,0,0,2.374L3.7,14.193a2.161,2.161,0,0,1,.437,1.187V17a1.84,1.84,0,0,0,1.833,1.833H7.614a2.131,2.131,0,0,1,1.2.446l1.5,1.292a1.914,1.914,0,0,0,2.393,0l1.5-1.292a2.105,2.105,0,0,1,1.2-.446h1.615A1.84,1.84,0,0,0,18.85,17V15.39a2.131,2.131,0,0,1,.446-1.2l1.292-1.5a1.927,1.927,0,0,0-.009-2.393ZM15.45,9.7l-4.587,4.587a.711.711,0,0,1-1.007,0l-2.3-2.3a.712.712,0,0,1,1.007-1.007l1.8,1.8,4.084-4.084A.712.712,0,1,1,15.45,9.7Z" transform="translate(-2.006 -1.996)" fill="#1d9bf0"/>
</svg>
