<svg id="video_play_icon" xmlns="http://www.w3.org/2000/svg" width="17.993" height="17.993" viewBox="0 0 17.993 17.993">
  <path id="Vector" d="M1.814,6.552a1.728,1.728,0,0,1-.87-.225A2.131,2.131,0,0,1,0,4.385V2.166A2.139,2.139,0,0,1,.945.224,2.124,2.124,0,0,1,3.1.382l1.927,1.11A2.138,2.138,0,0,1,6.23,3.276,2.138,2.138,0,0,1,5.023,5.06L3.1,6.17A2.567,2.567,0,0,1,1.814,6.552Zm.007-5.428a.567.567,0,0,0-.307.075,1.088,1.088,0,0,0-.382.967V4.385a1.07,1.07,0,0,0,.382.967A1.065,1.065,0,0,0,2.541,5.2l1.927-1.11c.412-.24.645-.532.645-.81s-.232-.577-.645-.81L2.541,1.357A1.483,1.483,0,0,0,1.822,1.124Z" transform="translate(6.253 5.721)" fill="#fff"/>
  <path id="Vector-2" data-name="Vector" d="M8.059,16.119a8.059,8.059,0,1,1,8.059-8.059A8.066,8.066,0,0,1,8.059,16.119Zm0-14.994a6.935,6.935,0,1,0,6.935,6.935A6.943,6.943,0,0,0,8.059,1.125Z" transform="translate(0.937 0.937)" fill="#fff"/>
  <path id="Vector-3" data-name="Vector" d="M0,0H17.993V17.993H0Z" transform="translate(0 0)" fill="none" opacity="0"/>
</svg>
