<svg xmlns="http://www.w3.org/2000/svg" width="24" height="24" viewBox="0 0 24 24">
  <g id="vuesax_outline_message-text" data-name="vuesax/outline/message-text" transform="translate(-236 -252)">
    <g id="message-text">
      <path id="Vector" d="M10.75,21.56a2.265,2.265,0,0,1-1.8-.96l-1.5-2a.472.472,0,0,0-.2-.1h-.5C2.58,18.5,0,17.37,0,11.75v-5C0,2.33,2.33,0,6.75,0h8c4.42,0,6.75,2.33,6.75,6.75v5c0,4.42-2.33,6.75-6.75,6.75h-.5a.261.261,0,0,0-.2.1l-1.5,2A2.265,2.265,0,0,1,10.75,21.56ZM6.75,1.5C3.17,1.5,1.5,3.17,1.5,6.75v5C1.5,16.27,3.05,17,6.75,17h.5a1.876,1.876,0,0,1,1.4.7l1.5,2a.694.694,0,0,0,1.2,0l1.5-2a1.752,1.752,0,0,1,1.4-.7h.5C18.33,17,20,15.33,20,11.75v-5c0-3.58-1.67-5.25-5.25-5.25Z" transform="translate(237.25 253.25)"/>
      <path id="Vector-2" data-name="Vector" d="M0,0H24V24H0Z" transform="translate(236 252)" fill="none" opacity="0"/>
      <path id="Vector-3" data-name="Vector" d="M10.75,1.5H.75A.755.755,0,0,1,0,.75.755.755,0,0,1,.75,0h10a.755.755,0,0,1,.75.75A.755.755,0,0,1,10.75,1.5Z" transform="translate(242.25 259.25)"/>
      <path id="Vector-4" data-name="Vector" d="M6.75,1.5h-6A.755.755,0,0,1,0,.75.755.755,0,0,1,.75,0h6A.755.755,0,0,1,7.5.75.755.755,0,0,1,6.75,1.5Z" transform="translate(242.25 264.25)"/>
    </g>
  </g>
</svg>
