<svg xmlns="http://www.w3.org/2000/svg" width="24" height="24" viewBox="0 0 24 24">
  <g id="vuesax_outline_truck-tick" data-name="vuesax/outline/truck-tick" transform="translate(-108 -252)">
    <g id="truck-tick">
      <path id="Vector" d="M11.75,13.52H.75A.755.755,0,0,1,0,12.77V6.39a.76.76,0,0,1,.49-.71.744.744,0,0,1,.83.22,3.166,3.166,0,0,0,2.5,1.11,3.145,3.145,0,0,0,2.1-.85,2.733,2.733,0,0,0,.63-.77A3.225,3.225,0,0,0,5.9,1.32.748.748,0,0,1,5.69.49.757.757,0,0,1,6.39,0h7.36a.755.755,0,0,1,.75.75v10A2.753,2.753,0,0,1,11.75,13.52ZM1.5,12.02H11.75A1.25,1.25,0,0,0,13,10.77V1.52H7.94A4.764,4.764,0,0,1,8.5,3.66a4.689,4.689,0,0,1-.64,2.48,4.151,4.151,0,0,1-.93,1.14A4.633,4.633,0,0,1,3.86,8.52a4.591,4.591,0,0,1-2.35-.56v4.06Z" transform="translate(109.25 253.23)"/>
      <path id="Vector-2" data-name="Vector" d="M17.75,16.5h-1a.755.755,0,0,1-.75-.75,1.25,1.25,0,0,0-2.5,0,.755.755,0,0,1-.75.75h-4A.755.755,0,0,1,8,15.75a1.25,1.25,0,0,0-2.5,0,.755.755,0,0,1-.75.75h-1A3.751,3.751,0,0,1,0,12.75v-3A.755.755,0,0,1,.75,9h11A1.25,1.25,0,0,0,13,7.75v-7A.755.755,0,0,1,13.75,0h1.84a2.748,2.748,0,0,1,2.39,1.39l1.71,2.99a.77.77,0,0,1,0,.75.743.743,0,0,1-.65.37H17.75a.248.248,0,0,0-.25.25v3a.248.248,0,0,0,.25.25h3a.755.755,0,0,1,.75.75v3A3.751,3.751,0,0,1,17.75,16.5ZM17.4,15h.35A2.253,2.253,0,0,0,20,12.75V10.5H17.75A1.758,1.758,0,0,1,16,8.75v-3A1.752,1.752,0,0,1,17.75,4L16.68,2.13a1.252,1.252,0,0,0-1.09-.63H14.5V7.75a2.748,2.748,0,0,1-2.75,2.75H1.5v2.25A2.253,2.253,0,0,0,3.75,15H4.1a2.756,2.756,0,0,1,5.3,0h2.71a2.749,2.749,0,0,1,5.29,0Z" transform="translate(109.25 256.25)"/>
      <path id="Vector-3" data-name="Vector" d="M2.75,5.5A2.75,2.75,0,1,1,5.5,2.75,2.748,2.748,0,0,1,2.75,5.5Zm0-4A1.25,1.25,0,1,0,4,2.75,1.25,1.25,0,0,0,2.75,1.5Z" transform="translate(113.25 269.25)"/>
      <path id="Vector-4" data-name="Vector" d="M2.75,5.5A2.75,2.75,0,1,1,5.5,2.75,2.748,2.748,0,0,1,2.75,5.5Zm0-4A1.25,1.25,0,1,0,4,2.75,1.25,1.25,0,0,0,2.75,1.5Z" transform="translate(121.25 269.25)"/>
      <path id="Vector-5" data-name="Vector" d="M4.75,6.5h-3A1.758,1.758,0,0,1,0,4.75v-3A1.758,1.758,0,0,1,1.75,0H3.04a.732.732,0,0,1,.65.38l1.71,3a.787.787,0,0,1,.1.37v2A.755.755,0,0,1,4.75,6.5Zm-3-5a.248.248,0,0,0-.25.25v3A.248.248,0,0,0,1.75,5H4V3.95L2.6,1.5Z" transform="translate(125.25 260.25)"/>
      <path id="Vector-6" data-name="Vector" d="M4.732,9.5a4.631,4.631,0,0,1-3.56-1.65,4.3,4.3,0,0,1-.42-.56A4.58,4.58,0,0,1,0,4.86,4.69,4.69,0,0,1,1.7,1.1,4.739,4.739,0,0,1,4.652,0a4.909,4.909,0,0,1,3.24,1.19,4.725,4.725,0,0,1,.97,5.93,4.151,4.151,0,0,1-.93,1.14A4.633,4.633,0,0,1,4.862,9.5Zm0-8h-.06a3.265,3.265,0,0,0-2.02.76,3.226,3.226,0,0,0-1.16,2.56A3.085,3.085,0,0,0,2,6.46a2.818,2.818,0,0,0,.29.39,3.227,3.227,0,0,0,2.52,1.14,3.145,3.145,0,0,0,2.1-.85,2.733,2.733,0,0,0,.63-.77,3.225,3.225,0,0,0-.65-4.07A3.332,3.332,0,0,0,4.732,1.5Z" transform="translate(108.258 252.25)"/>
      <path id="Vector-7" data-name="Vector" d="M1.761,3.511a.751.751,0,0,1-.52-.21l-1.01-.96a.75.75,0,0,1,1.04-1.08l.49.47L3.331.211a.75.75,0,1,1,1.04,1.08l-2.09,2.02A.807.807,0,0,1,1.761,3.511Z" transform="translate(110.688 255.239)"/>
      <path id="Vector-8" data-name="Vector" d="M0,0H24V24H0Z" transform="translate(108 252)" fill="none" opacity="0"/>
    </g>
  </g>
</svg>
